<svg id="ball-bearing" xmlns="http://www.w3.org/2000/svg" width="42" height="42" viewBox="0 0 42 42">
  <path id="Path_207" data-name="Path 207" d="M6.151,35.849a21,21,0,0,0,29.7-29.7,21,21,0,0,0-29.7,29.7ZM21,2.461A18.539,18.539,0,1,1,2.461,21,18.56,18.56,0,0,1,21,2.461Z" transform="translate(0)" fill="#5b5d5f"/>
  <path id="Path_208" data-name="Path 208" d="M84.209,99.56A15.352,15.352,0,1,0,68.857,84.209,15.369,15.369,0,0,0,84.209,99.56Zm0-22.594a7.242,7.242,0,1,1-7.242,7.242A7.25,7.25,0,0,1,84.209,76.966ZM78.276,91.881A9.7,9.7,0,0,0,80.811,93.3a4.043,4.043,0,0,0-.537,3.187,12.882,12.882,0,0,1-4.265-2.336Zm4.339,3.624A1.594,1.594,0,1,1,84.209,97.1,1.6,1.6,0,0,1,82.615,95.505ZM87.607,93.3a9.7,9.7,0,0,0,2.535-1.416l2.267,2.267a12.882,12.882,0,0,1-4.265,2.336,4.043,4.043,0,0,0-.537-3.187Zm4.275-3.156A9.7,9.7,0,0,0,93.3,87.607a4.043,4.043,0,0,0,3.187.537,12.881,12.881,0,0,1-2.336,4.265ZM95.505,85.8A1.594,1.594,0,1,1,97.1,84.209,1.6,1.6,0,0,1,95.505,85.8Zm0-5.649a4.029,4.029,0,0,0-2.208.657,9.7,9.7,0,0,0-1.416-2.535l2.267-2.267a12.882,12.882,0,0,1,2.336,4.265A4.051,4.051,0,0,0,95.505,80.154Zm-5.364-3.618a9.7,9.7,0,0,0-2.535-1.416,4.043,4.043,0,0,0,.537-3.187,12.882,12.882,0,0,1,4.265,2.336ZM85.8,72.912a1.594,1.594,0,1,1-1.594-1.594A1.6,1.6,0,0,1,85.8,72.912ZM80.811,75.12a9.7,9.7,0,0,0-2.535,1.416l-2.267-2.267a12.882,12.882,0,0,1,4.265-2.336,4.043,4.043,0,0,0,.537,3.187Zm-4.275,3.156a9.7,9.7,0,0,0-1.416,2.535,4.043,4.043,0,0,0-3.187-.537,12.881,12.881,0,0,1,2.336-4.265Zm-3.624,4.339a1.594,1.594,0,1,1-1.594,1.594A1.6,1.6,0,0,1,72.912,82.615Zm0,5.649a4.029,4.029,0,0,0,2.208-.657,9.7,9.7,0,0,0,1.416,2.535l-2.267,2.267a12.882,12.882,0,0,1-2.336-4.265,4.051,4.051,0,0,0,.979.12Z" transform="translate(-63.209 -63.209)" fill="#5b5d5f"/>
</svg>
