<svg xmlns="http://www.w3.org/2000/svg" width="28.333" height="25.5" viewBox="0 0 28.333 25.5">
  <g id="box" transform="translate(-0.833 -0.25)">
    <path id="Path_7" data-name="Path 7" d="M26.333.25H3.667A2.836,2.836,0,0,0,.833,3.083V5.917A2.826,2.826,0,0,0,2.25,8.356V22.917A2.836,2.836,0,0,0,5.083,25.75H24.917a2.836,2.836,0,0,0,2.833-2.833V8.356a2.826,2.826,0,0,0,1.417-2.439V3.083A2.836,2.836,0,0,0,26.333.25ZM3.667,3.083H26.333l0,2.833H3.667ZM5.083,22.917V8.75H24.917l0,14.167Z" fill="#5b5d5f"/>
    <path id="Path_8" data-name="Path 8" d="M9.333,11.583H20.667v2.833H9.333Z" fill="#5b5d5f"/>
  </g>
</svg>
