<svg xmlns="http://www.w3.org/2000/svg" width="33.334" height="30" viewBox="0 0 33.334 30">
  <path id="bx_bxs-car" d="M35.287,15.592l-2.28-6.84a4.992,4.992,0,0,0-4.742-3.418h-15.2A4.992,4.992,0,0,0,8.327,8.752l-2.28,6.84A3.334,3.334,0,0,0,4,18.667V27a3.32,3.32,0,0,0,1.667,2.872v3.8a1.667,1.667,0,0,0,1.667,1.667H9a1.667,1.667,0,0,0,1.667-1.667V30.333h20v3.333a1.667,1.667,0,0,0,1.667,1.667H34a1.667,1.667,0,0,0,1.667-1.667v-3.8A3.317,3.317,0,0,0,37.334,27V18.667a3.334,3.334,0,0,0-2.047-3.075ZM13.068,8.667h15.2a1.663,1.663,0,0,1,1.582,1.14l1.843,5.527H9.645l1.842-5.527a1.667,1.667,0,0,1,1.582-1.14ZM9.833,25.333A2.5,2.5,0,1,1,11.6,24.6,2.5,2.5,0,0,1,9.833,25.333Zm21.667,0a2.5,2.5,0,1,1,1.769-.732A2.5,2.5,0,0,1,31.5,25.333Z" transform="translate(-4 -5.333)" fill="#5b5d5f"/>
</svg>
