<svg xmlns="http://www.w3.org/2000/svg" width="41.072" height="30.804" viewBox="0 0 41.072 30.804">
  <g id="cctv" transform="translate(0 -64.002)">
    <g id="Group_183" data-name="Group 183" transform="translate(0 64.002)">
      <g id="Group_182" data-name="Group 182" transform="translate(0 0)">
        <path id="Path_135" data-name="Path 135" d="M17.435,64.518a4.219,4.219,0,0,0-5.42,1.216l-4.5,6.427a3.737,3.737,0,0,0,1.192,5.376l4.894,2.826-.884,1.18A3.636,3.636,0,0,0,12.764,86l-1.3,1.96H5.134V85.385a.848.848,0,0,0-.856-.847H.856A.848.848,0,0,0,0,85.385v8.564a.856.856,0,0,0,.856.856H4.278a.856.856,0,0,0,.856-.856v-.855h6.327a5.122,5.122,0,0,0,4.272-2.287l1.4-2.106a3.874,3.874,0,0,0,.821.112,3.918,3.918,0,0,0,3.344-1.9l.94-1.568,7.282,4.205a.855.855,0,0,0,1.193-.359l.633-1.27c.1.008.2.03.31.03a6,6,0,0,0,5.99-5.995,5.528,5.528,0,0,0-.133-1.119L40.6,79.3a.858.858,0,0,0,.473-.743ZM14.309,89.862a3.415,3.415,0,0,1-2.848,1.524H5.134V89.674h6.327a1.7,1.7,0,0,0,1.424-.762l1.185-1.778,1.469.881Zm15.282-2.238L9.566,76.07a2.021,2.021,0,0,1-.644-2.908l2.148-3.068L32.245,82.309ZM32.217,86.2l1.791-3.587,1.9-.95c.01.105.029.214.029.315A4.271,4.271,0,0,1,32.217,86.2ZM33.4,81,12.055,68.686l1.362-1.945a2.408,2.408,0,0,1,3.169-.71L38.4,78.5Z" transform="translate(0 -64.002)" fill="#5b5d5f"/>
        <circle id="Ellipse_26" data-name="Ellipse 26" cx="0.856" cy="0.856" r="0.856" transform="translate(27.381 18.824)" fill="#5b5d5f"/>
      </g>
    </g>
  </g>
</svg>
