<svg xmlns="http://www.w3.org/2000/svg" width="47.237" height="47.224" viewBox="0 0 47.237 47.224">
  <g id="circular-saw" transform="matrix(1, 0.017, -0.017, 1, 0.812, -0.073)">
    <path id="Path_173" data-name="Path 173" d="M41.638,28.765a1.816,1.816,0,0,1-.544-2.964l4.845-5.41c.9-1.008.536-1.783-.816-1.721l-3.213.148a1.816,1.816,0,0,1-1.953-2.3l1.492-7.106c.278-1.325-.426-1.811-1.566-1.08l-2.713,1.74a1.814,1.814,0,0,1-2.837-1.011l-2.258-6.9C31.654.878,30.8.809,30.178,2.011L28.7,4.867a1.817,1.817,0,0,1-2.965.544L20.325.567c-1.009-.9-1.783-.535-1.721.817l.147,3.209a1.816,1.816,0,0,1-2.3,1.954L9.346,5.056c-1.325-.278-1.81.427-1.079,1.566l1.739,2.711A1.813,1.813,0,0,1,9,12.169l-6.9,2.258C.8,14.848.736,15.7,1.938,16.322L4.8,17.8a1.816,1.816,0,0,1,.544,2.964L.495,26.174c-.9,1.008-.536,1.783.816,1.721l3.212-.147a1.816,1.816,0,0,1,1.953,2.3L4.984,37.149c-.278,1.325.427,1.811,1.566,1.08l2.713-1.74A1.813,1.813,0,0,1,12.1,37.5l2.258,6.9c.421,1.287,1.274,1.356,1.9.153L17.733,41.7a1.817,1.817,0,0,1,2.965-.544L26.109,46c1.009.9,1.783.535,1.721-.817l-.147-3.209a1.816,1.816,0,0,1,2.3-1.954l7.109,1.492c1.325.278,1.81-.427,1.079-1.566l-1.739-2.711a1.813,1.813,0,0,1,1.01-2.837l6.9-2.258c1.287-.421,1.356-1.274.153-1.9ZM22.982,35.43A12.03,12.03,0,1,1,35.014,23.4,12.045,12.045,0,0,1,22.982,35.43Z" transform="translate(0 0)" fill="#5b5d5f"/>
    <path id="Path_174" data-name="Path 174" d="M91.308,83.91a9.569,9.569,0,1,0,9.575,9.569A9.583,9.583,0,0,0,91.308,83.91Zm0,12.328a2.759,2.759,0,1,1,2.759-2.759A2.759,2.759,0,0,1,91.308,96.238Z" transform="translate(-68.326 -70.079)" fill="#5b5d5f"/>
  </g>
</svg>
