<svg xmlns="http://www.w3.org/2000/svg" width="41.998" height="41.998" viewBox="0 0 41.998 41.998">
  <g id="clutch-disc" transform="translate(0)">
    <path id="Path_217" data-name="Path 217" d="M255.995,66.028h0Z" transform="translate(-234.996 -60.612)" fill="#5b5d5f"/>
    <g id="Group_220" data-name="Group 220" transform="translate(0 0)">
      <path id="Exclusion_3" data-name="Exclusion 3" d="M-2560.683-1965h-2.635a1.229,1.229,0,0,1-1.167-.841l-1.169-3.506c-.514-.113-1.022-.249-1.509-.4l-2.765,2.452a1.23,1.23,0,0,1-.816.31,1.232,1.232,0,0,1-.615-.165l-2.282-1.318a1.228,1.228,0,0,1-.591-1.312l.742-3.628c-.387-.354-.757-.724-1.1-1.1l-3.628.743a1.234,1.234,0,0,1-.247.025,1.233,1.233,0,0,1-1.065-.615l-1.319-2.282a1.231,1.231,0,0,1,.145-1.432l2.452-2.765c-.158-.5-.293-1.008-.4-1.508l-3.506-1.168a1.229,1.229,0,0,1-.841-1.167v-2.636a1.229,1.229,0,0,1,.841-1.167l3.506-1.169c.111-.5.247-1.012.4-1.507l-2.452-2.765a1.231,1.231,0,0,1-.145-1.432l1.319-2.282a1.233,1.233,0,0,1,1.065-.615,1.232,1.232,0,0,1,.247.025l3.627.743c.351-.384.72-.754,1.1-1.1l-.743-3.627a1.228,1.228,0,0,1,.591-1.312l2.282-1.318a1.232,1.232,0,0,1,.615-.165,1.23,1.23,0,0,1,.817.31l2.764,2.452c.5-.158,1.006-.294,1.509-.4l1.169-3.505a1.229,1.229,0,0,1,1.167-.841h2.635a1.229,1.229,0,0,1,1.167.841l1.169,3.505c.506.111,1.014.247,1.509.4l2.764-2.452a1.23,1.23,0,0,1,.817-.31,1.229,1.229,0,0,1,.615.165l2.282,1.318a1.228,1.228,0,0,1,.591,1.312l-.743,3.627c.387.354.757.724,1.1,1.1l3.627-.743a1.236,1.236,0,0,1,.247-.025,1.233,1.233,0,0,1,1.065.615l1.319,2.282a1.231,1.231,0,0,1-.145,1.432l-2.452,2.765c.157.5.293,1.006.4,1.507l3.507,1.169a1.229,1.229,0,0,1,.841,1.167v2.636a1.229,1.229,0,0,1-.842,1.167l-3.506,1.168c-.111.508-.248,1.016-.4,1.508l2.452,2.765a1.227,1.227,0,0,1,.145,1.432l-1.318,2.282a1.233,1.233,0,0,1-1.065.615,1.236,1.236,0,0,1-.247-.025l-3.627-.742c-.347.38-.718.75-1.1,1.1l.743,3.628a1.228,1.228,0,0,1-.591,1.312l-2.282,1.318a1.233,1.233,0,0,1-.615.165,1.229,1.229,0,0,1-.817-.31l-2.765-2.452c-.489.156-1,.291-1.508.4l-1.169,3.506A1.229,1.229,0,0,1-2560.683-1965Zm-1.317-32.773A11.787,11.787,0,0,0-2573.774-1986,11.787,11.787,0,0,0-2562-1974.227,11.787,11.787,0,0,0-2550.227-1986,11.787,11.787,0,0,0-2562-1997.775Zm0,21.087a9.25,9.25,0,0,1-3.551-.7l2.1-3.633a5.2,5.2,0,0,0,1.453.208,5.2,5.2,0,0,0,1.452-.208l2.1,3.633A9.242,9.242,0,0,1-2562-1976.688Zm5.679-1.938h0l-2.1-3.631a5.182,5.182,0,0,0,1.454-2.513h4.2a9.258,9.258,0,0,1-3.552,6.145Zm-11.358,0h0a9.255,9.255,0,0,1-3.551-6.145h4.2a5.168,5.168,0,0,0,1.454,2.513l-2.1,3.631Zm5.679-4.652a2.726,2.726,0,0,1-2.724-2.723,2.726,2.726,0,0,1,2.724-2.723,2.726,2.726,0,0,1,2.723,2.723A2.726,2.726,0,0,1-2562-1983.278Zm9.231-3.954h-4.2a5.176,5.176,0,0,0-1.454-2.512l2.1-3.633a9.257,9.257,0,0,1,3.552,6.144Zm-14.267,0h-4.2a9.258,9.258,0,0,1,3.552-6.145l2.1,3.633a5.163,5.163,0,0,0-1.453,2.511Zm3.582-3.745h0l-2.1-3.633a9.231,9.231,0,0,1,3.551-.7,9.224,9.224,0,0,1,3.55.7l-2.1,3.633a5.194,5.194,0,0,0-1.452-.208,5.175,5.175,0,0,0-1.453.209Z" transform="translate(2583 2007)" fill="#5b5d5f"/>
    </g>
  </g>
</svg>
