<svg xmlns="http://www.w3.org/2000/svg" width="38" height="24.528" viewBox="0 0 38 24.528">
  <g id="couch" transform="translate(0 -90.761)">
    <path id="Path_233" data-name="Path 233" d="M34.121,193.541a1.15,1.15,0,0,0-1.15,1.15v7.826a1.15,1.15,0,0,1-1.15,1.15H6.18a1.15,1.15,0,0,1-1.15-1.15v-7.826a1.15,1.15,0,0,0-1.15-1.15H1.4a1.4,1.4,0,0,0-1.4,1.4V206.8a1.15,1.15,0,0,0,1.15,1.15H4.9v1.339a1.136,1.136,0,0,0,1.063,1.147,1.113,1.113,0,0,0,1.164-1.112v-1.374h23.75v1.339a1.136,1.136,0,0,0,1.063,1.147,1.113,1.113,0,0,0,1.164-1.112v-1.374H36.85A1.15,1.15,0,0,0,38,206.8V194.942a1.4,1.4,0,0,0-1.4-1.4Z" transform="translate(0 -95.152)" fill="#57595a"/>
    <g id="Group_256" data-name="Group 256" transform="translate(4.441 90.761)">
      <g id="Group_254" data-name="Group 254" transform="translate(0 0)">
        <path id="Path_234" data-name="Path 234" d="M62.649,99.791v2.056H73.28V91.731a3.526,3.526,0,0,0-2.427-.97h-7.48a3.55,3.55,0,0,0-3.54,3.54v1.955A3.634,3.634,0,0,1,62.649,99.791Z" transform="translate(-59.834 -90.761)" fill="#57595a"/>
        <path id="Path_235" data-name="Path 235" d="M108.4,270.126H97.765v2.216H108.4c0-.026,0-.051,0-.077v-2.139Z" transform="translate(-94.95 -256.814)" fill="#57595a"/>
      </g>
      <g id="Group_255" data-name="Group 255" transform="translate(15.669)">
        <path id="Path_236" data-name="Path 236" d="M281.636,99.791a3.634,3.634,0,0,1,2.816-3.535V94.3a3.55,3.55,0,0,0-3.54-3.54h-7.48a3.525,3.525,0,0,0-2.427.97v10.116h10.63Z" transform="translate(-271.002 -90.761)" fill="#57595a"/>
        <path id="Path_237" data-name="Path 237" d="M281.588,270.678v-.551h-10.63v2.139c0,.026,0,.052,0,.077h10.634v-1.665Z" transform="translate(-270.954 -256.815)" fill="#57595a"/>
      </g>
    </g>
  </g>
</svg>
