<svg xmlns="http://www.w3.org/2000/svg" width="43.807" height="43.807" viewBox="0 0 43.807 43.807">
  <g id="cpu" transform="translate(0 0)">
    <path id="Exclusion_1" data-name="Exclusion 1" d="M-2965.255-1826.783a1.218,1.218,0,0,1-1.217-1.217v-3.893h-3.773V-1828a1.218,1.218,0,0,1-1.217,1.217,1.218,1.218,0,0,1-1.217-1.217v-3.893h-3.894V-1828a1.218,1.218,0,0,1-1.217,1.217,1.218,1.218,0,0,1-1.217-1.217v-3.893h-3.893V-1828a1.218,1.218,0,0,1-1.217,1.217,1.218,1.218,0,0,1-1.217-1.217v-3.893h-2.616a3.533,3.533,0,0,1-3.529-3.529v-2.616h-3.894a1.218,1.218,0,0,1-1.217-1.217,1.218,1.218,0,0,1,1.217-1.217h3.894v-3.773h-3.894a1.218,1.218,0,0,1-1.217-1.217,1.218,1.218,0,0,1,1.217-1.217h3.894v-3.894h-3.894a1.218,1.218,0,0,1-1.217-1.217,1.218,1.218,0,0,1,1.217-1.217h3.894v-3.893h-3.894a1.218,1.218,0,0,1-1.217-1.217,1.218,1.218,0,0,1,1.217-1.217h3.894v-2.616a3.533,3.533,0,0,1,3.529-3.529h2.616v-3.894a1.218,1.218,0,0,1,1.217-1.217,1.218,1.218,0,0,1,1.217,1.217v3.894h3.772v-3.894a1.218,1.218,0,0,1,1.217-1.217,1.218,1.218,0,0,1,1.217,1.217v3.894h3.894v-3.894a1.218,1.218,0,0,1,1.217-1.217,1.218,1.218,0,0,1,1.217,1.217v3.894h3.894v-3.894a1.218,1.218,0,0,1,1.217-1.217,1.218,1.218,0,0,1,1.217,1.217v3.894h2.616a3.533,3.533,0,0,1,3.529,3.529v2.616H-2954a1.218,1.218,0,0,1,1.217,1.217A1.218,1.218,0,0,1-2954-1856.9h-3.894v3.833H-2954c.345,0,.5.631.5,1.217s-.157,1.217-.5,1.217v-.061h-3.894v3.894H-2954a1.218,1.218,0,0,1,1.217,1.217,1.218,1.218,0,0,1-1.217,1.217h-3.894v3.894H-2954a1.218,1.218,0,0,1,1.217,1.217,1.218,1.218,0,0,1-1.217,1.217h-3.894v2.616a3.533,3.533,0,0,1-3.529,3.529h-2.616V-1828A1.218,1.218,0,0,1-2965.255-1826.783Zm-18.861-32.55a1.218,1.218,0,0,0-1.217,1.217v18.861a1.218,1.218,0,0,0,1.217,1.217h18.861a1.218,1.218,0,0,0,1.217-1.217v-18.861a1.218,1.218,0,0,0-1.217-1.217Zm17.644,18.861H-2982.9v-4.563h2.434a1.218,1.218,0,0,0,1.217-1.217,1.218,1.218,0,0,0-1.217-1.217h-2.434v-2.434h4.867a1.218,1.218,0,0,0,1.217-1.217,1.218,1.218,0,0,0-1.217-1.217h-4.867v-4.564h16.427v16.427Z" transform="translate(2996.589 1870.589)" fill="#5b5d5f"/>
  </g>
</svg>
