<svg xmlns="http://www.w3.org/2000/svg" width="38.821" height="38.82" viewBox="0 0 38.821 38.82">
  <g id="delivery-box" transform="translate(0 0)">
    <path id="Path_228" data-name="Path 228" d="M25.519,3.12,7.9,12.139.9,8.694,18.206.149a1.418,1.418,0,0,1,1.262,0Z" transform="translate(0.556)" fill="#5b5d5f"/>
    <path id="Path_229" data-name="Path 229" d="M32.865,6.879l-17.926,8.88L8.227,12.451l-.971-.493L24.892,2.94l.971.492Z" transform="translate(4.481 1.815)" fill="#5b5d5f"/>
    <path id="Path_230" data-name="Path 230" d="M17.984,15.837l-.019,18.688L.8,25.565a1.5,1.5,0,0,1-.8-1.32V6.957l7.276,3.584v6.3a1.456,1.456,0,1,0,2.912,0V12l.971.472Z" transform="translate(0 4.296)" fill="#5b5d5f"/>
    <path id="Path_231" data-name="Path 231" d="M30.832,6.969,12.925,15.811,12.906,34.5l17.945-9.37Z" transform="translate(7.97 4.303)" fill="#5b5d5f"/>
  </g>
</svg>
