<svg xmlns="http://www.w3.org/2000/svg" width="41.023" height="34.185" viewBox="0 0 41.023 34.185">
  <g id="duct-tape" transform="translate(0 -2)">
    <path id="Path_167" data-name="Path 167" d="M17.093,17.383C8.806,17.383,0,14.688,0,9.692S8.806,2,17.093,2,34.185,4.7,34.185,9.692,25.379,17.383,17.093,17.383Zm0-12.819c-9,0-14.529,2.986-14.529,5.128s5.526,5.128,14.529,5.128,14.529-2.986,14.529-5.128S26.1,4.564,17.093,4.564Z" fill="#5b5d5f"/>
    <path id="Path_168" data-name="Path 168" d="M19.782,14.546A1.282,1.282,0,0,1,18.5,13.264V7.282a1.282,1.282,0,1,1,2.564,0v5.982A1.282,1.282,0,0,1,19.782,14.546Z" transform="translate(13.121 2.837)" fill="#5b5d5f"/>
    <path id="Path_169" data-name="Path 169" d="M17.52,25.9C7.531,25.9,0,22.411,0,17.782a1.282,1.282,0,1,1,2.564,0c0,2.622,6.4,5.555,14.956,5.555a1.282,1.282,0,1,1,0,2.564Z" transform="translate(0 10.284)" fill="#5b5d5f"/>
    <path id="Path_170" data-name="Path 170" d="M1.282,26.688A1.282,1.282,0,0,1,0,25.407V7.032a1.282,1.282,0,0,1,2.564,0V25.407A1.282,1.282,0,0,1,1.282,26.688Z" transform="translate(0 2.66)" fill="#5b5d5f"/>
    <path id="Path_171" data-name="Path 171" d="M33,30.866H10.782a1.282,1.282,0,1,1,0-2.564H30.3l-.85-1.039a1.278,1.278,0,0,1,0-1.624l1.9-2.321L29.447,21a1.278,1.278,0,0,1,0-1.624l1.9-2.321-1.9-2.321a1.278,1.278,0,0,1,0-1.624l.85-1.043H10.782a1.282,1.282,0,0,1,0-2.564H33a1.281,1.281,0,0,1,.991,2.094l-1.9,2.321,1.9,2.321a1.278,1.278,0,0,1,0,1.624l-1.9,2.321,1.9,2.321a1.278,1.278,0,0,1,0,1.624l-1.9,2.321,1.9,2.321a1.284,1.284,0,0,1-.991,2.1Z" transform="translate(6.738 5.319)" fill="#5b5d5f"/>
    <path id="Path_172" data-name="Path 172" d="M13.546,11.337C9.6,11.337,5,10.441,5,7.919S9.6,4.5,13.546,4.5s8.546.9,8.546,3.419S17.49,11.337,13.546,11.337ZM7.976,7.919a15.066,15.066,0,0,0,5.57.855,15.066,15.066,0,0,0,5.57-.855,15.066,15.066,0,0,0-5.57-.855A15.066,15.066,0,0,0,7.976,7.919Zm11.642.311h.017Z" transform="translate(3.546 1.773)" fill="#5b5d5f"/>
  </g>
</svg>
