<svg xmlns="http://www.w3.org/2000/svg" width="44" height="38.133" viewBox="0 0 44 38.133">
  <g id="Electric_Motor-electronics" data-name="Electric Motor-electronics" transform="translate(-2 -3)">
    <path id="Exclusion_10" data-name="Exclusion 10" d="M-2683.067-1690.8H-2708a.734.734,0,0,1-.733-.733v-2.934a.734.734,0,0,1,.733-.734h2.933v-1.466h-5.866a2.2,2.2,0,0,1-2.2-2.2v-5.866h-5.134a.734.734,0,0,1-.734-.734v-4.4a.734.734,0,0,1,.734-.734h5.134v-5.133a2.2,2.2,0,0,1,2.2-2.2h7.333v-1.466h-2.2a.734.734,0,0,1-.734-.734V-1726a.734.734,0,0,1,.734-.734h1.466v-1.466a.734.734,0,0,1,.733-.734h2.933a.734.734,0,0,1,.734.734v1.466h1.467v-1.466a.734.734,0,0,1,.734-.734h2.933a.734.734,0,0,1,.733.734v1.466h1.466a.734.734,0,0,1,.734.734v5.867a.734.734,0,0,1-.734.734h-2.2v1.466h16.133a3.678,3.678,0,0,1,3.667,3.667v13.934a3.678,3.678,0,0,1-3.667,3.667H-2686v1.466h2.933a.734.734,0,0,1,.734.734v2.934A.734.734,0,0,1-2683.067-1690.8Zm-20.533-5.866v1.466h16.134v-1.466Zm-2.933-19.8v18.333h22.733v-18.333Zm-11,7.333v2.933h4.4v-2.933Zm36.668-2.2v1.466h2.933v-1.466Zm0-2.933v1.466h2.933v-1.466Zm-21.267-5.134v1.466h5.866v-1.466Zm5.133-8.067v.733h1.467v-.733Zm-5.866,0v.733h1.467v-.733Z" transform="translate(2721 1731.933)" fill="#5b5d5f"/>
    <path id="Path_150" data-name="Path 150" d="M22,21.733V36.4a.733.733,0,0,0,.733.733H39.6a.733.733,0,0,0,.733-.733V21.733A.733.733,0,0,0,39.6,21H22.733A.733.733,0,0,0,22,21.733Zm1.467,5.133h15.4v4.4h-15.4Zm0,5.867h15.4v.733h-15.4Zm15.4-7.333h-15.4v-.733h15.4Zm-15.4,10.267v-.733h15.4v.733Zm15.4-13.2V23.2h-15.4v-.733Z" transform="translate(-5.333 -4.8)" fill="#5b5d5f"/>
  </g>
</svg>
