<svg xmlns="http://www.w3.org/2000/svg" width="22.294" height="31.26" viewBox="0 0 22.294 31.26">
  <g id="flask" transform="translate(0.001 -0.001)">
    <path id="Exclusion_7" data-name="Exclusion 7" d="M-2850.157-1711.109h-16.238a3.023,3.023,0,0,1-2.515-1.341,3.025,3.025,0,0,1-.286-2.836l4.792-11.68h0l0,0,1.816-4.428a7.335,7.335,0,0,0,.552-2.8v-4.26a1.706,1.706,0,0,0-.5-1.214,2.08,2.08,0,0,1-.613-1.481v-.6a.611.611,0,0,1,.61-.611h8.525a.611.611,0,0,1,.61.611v.6a2.08,2.08,0,0,1-.613,1.481,1.706,1.706,0,0,0-.5,1.214v4.26a7.354,7.354,0,0,0,.553,2.8l6.61,16.113a3.024,3.024,0,0,1-.286,2.836A3.023,3.023,0,0,1-2850.157-1711.109Zm-.78-4.518a.61.61,0,0,0-.231.046.605.605,0,0,0-.332.329.6.6,0,0,0,0,.466l0,.008a.608.608,0,0,0,.565.38.621.621,0,0,0,.231-.046.612.612,0,0,0,.333-.8l0-.007A.609.609,0,0,0-2850.937-1715.627Zm-3.05-7.433a.6.6,0,0,0-.231.046.605.605,0,0,0-.332.33.6.6,0,0,0,0,.467l2.186,5.33a.607.607,0,0,0,.565.379.6.6,0,0,0,.231-.046.607.607,0,0,0,.332-.33.605.605,0,0,0,0-.467l-2.186-5.329A.609.609,0,0,0-2853.986-1723.06Zm-7.941-18.089a.868.868,0,0,0,.256.61,2.918,2.918,0,0,1,.86,2.077v4.259a8.562,8.562,0,0,1-.644,3.267l-1.474,3.593h9.308l-1.474-3.593a8.569,8.569,0,0,1-.644-3.267v-4.259a2.918,2.918,0,0,1,.86-2.077.872.872,0,0,0,.256-.61Z" transform="translate(2869.421 1742.37)" fill="#5b5d5f"/>
  </g>
</svg>
