<svg xmlns="http://www.w3.org/2000/svg" width="38.404" height="38.404" viewBox="0 0 38.404 38.404">
  <g id="gauge" transform="translate(0 0)">
    <path id="Exclusion_9" data-name="Exclusion 9" d="M-2428.521-1700.394a18.944,18.944,0,0,1-7.46-1.523,19.406,19.406,0,0,1-6.132-4.144,19.125,19.125,0,0,1-5.685-13.61,18.889,18.889,0,0,1,5.7-13.557,19.358,19.358,0,0,1,6.135-4.079,19.189,19.189,0,0,1,7.439-1.491,19,19,0,0,1,13.528,5.6,19,19,0,0,1,5.6,13.528,19.185,19.185,0,0,1-1.489,7.434,19.364,19.364,0,0,1-4.076,6.135A18.887,18.887,0,0,1-2428.521-1700.394Zm-2.4-11.251a3.379,3.379,0,0,0-3.375,3.375,3.379,3.379,0,0,0,3.375,3.376h4.651a3.379,3.379,0,0,0,3.375-3.376,3.379,3.379,0,0,0-3.375-3.375Zm2.4-22.652a14.719,14.719,0,0,0-14.777,14.627,14.909,14.909,0,0,0,4.284,10.492,1.118,1.118,0,0,0,.8.329,1.118,1.118,0,0,0,.8-.329l1.595-1.595a1.117,1.117,0,0,0,.329-.8,1.114,1.114,0,0,0-.329-.794,1.117,1.117,0,0,0-.8-.33,1.119,1.119,0,0,0-.8.33l-.761.76a12.751,12.751,0,0,1-2.817-6.943h1.075a1.127,1.127,0,0,0,1.126-1.125,1.127,1.127,0,0,0-1.126-1.125h-1.073a12.212,12.212,0,0,1,2.837-6.772l.74.74a1.119,1.119,0,0,0,.8.33,1.116,1.116,0,0,0,.8-.33,1.126,1.126,0,0,0,0-1.59l-.734-.735a12.517,12.517,0,0,1,6.916-2.844v1.075a1.127,1.127,0,0,0,1.126,1.126,1.127,1.127,0,0,0,1.125-1.126V-1732a12.291,12.291,0,0,1,6.619,2.678l-9.7,6.894a3.481,3.481,0,0,0-1.571,2.752c0,.071,0,.148.009.229a3.526,3.526,0,0,0,3.517,3.146,3.383,3.383,0,0,0,2.752-1.421l6.893-9.7a12.3,12.3,0,0,1,2.679,6.62h-1.073a1.126,1.126,0,0,0-1.125,1.125,1.126,1.126,0,0,0,1.125,1.125h1.075a12.742,12.742,0,0,1-2.823,6.938l-.757-.756a1.117,1.117,0,0,0-.8-.33,1.117,1.117,0,0,0-.8.33,1.114,1.114,0,0,0-.329.794,1.117,1.117,0,0,0,.329.8l1.591,1.59a1.116,1.116,0,0,0,.8.33,1.116,1.116,0,0,0,.8-.33,14.906,14.906,0,0,0,4.289-10.488A14.643,14.643,0,0,0-2428.52-1734.3Zm2.25,27.153h-4.651a1.127,1.127,0,0,1-1.125-1.126,1.126,1.126,0,0,1,1.125-1.125h4.651a1.126,1.126,0,0,1,1.125,1.125A1.127,1.127,0,0,1-2426.27-1707.144Zm-2.25-11.4a1.272,1.272,0,0,1-1.275-1.125,1.332,1.332,0,0,1,.625-.919l5.424-3.856-3.856,5.424A1.128,1.128,0,0,1-2428.52-1718.546Z" transform="translate(2447.798 1738.798)" fill="#5b5d5f"/>
  </g>
</svg>
