<svg xmlns="http://www.w3.org/2000/svg" width="33.162" height="33.104" viewBox="0 0 33.162 33.104">
  <g id="giftbox" transform="translate(0 -0.448)">
    <g id="Group_222" data-name="Group 222" transform="translate(0 0.448)">
      <g id="Group_221" data-name="Group 221" transform="translate(0 0)">
        <path id="Path_225" data-name="Path 225" d="M31,6.878H28.585a3.841,3.841,0,0,0,.588-1.668,4.293,4.293,0,0,0-7.151-3.642L18.975,4.331a3.239,3.239,0,0,0-4.791,0L11.132,1.568A4.293,4.293,0,0,0,3.981,5.211,3.84,3.84,0,0,0,4.57,6.878H2.163A2.163,2.163,0,0,0,0,9.041v3.244a1.081,1.081,0,0,0,1.081,1.081h31a1.081,1.081,0,0,0,1.081-1.081V9.041A2.163,2.163,0,0,0,31,6.878Zm-17.662-.36v.36H8.25a2.129,2.129,0,0,1-.9-4.06,2.081,2.081,0,0,1,2.329.353l3.657,3.315C13.338,6.5,13.337,6.507,13.337,6.518ZM27.028,4.923a2.19,2.19,0,0,1-2.223,1.955h-4.98v-.36c0-.013,0-.025,0-.038l3.6-3.264a2.163,2.163,0,0,1,2.046-.523A2.1,2.1,0,0,1,27.028,4.923Z" transform="translate(0 -0.448)" fill="#5b5d5f"/>
      </g>
    </g>
    <g id="Group_224" data-name="Group 224" transform="translate(2.163 15.529)">
      <g id="Group_223" data-name="Group 223">
        <path id="Path_226" data-name="Path 226" d="M33.391,233.291v15.86a2.163,2.163,0,0,0,2.163,2.163H45.646V233.291Z" transform="translate(-33.391 -233.291)" fill="#5b5d5f"/>
      </g>
    </g>
    <g id="Group_226" data-name="Group 226" transform="translate(18.744 15.529)">
      <g id="Group_225" data-name="Group 225">
        <path id="Path_227" data-name="Path 227" d="M289.391,233.291v18.023h10.093a2.163,2.163,0,0,0,2.163-2.163v-15.86Z" transform="translate(-289.391 -233.291)" fill="#5b5d5f"/>
      </g>
    </g>
  </g>
</svg>
