<svg xmlns="http://www.w3.org/2000/svg" width="29.691" height="26.392" viewBox="0 0 29.691 26.392">
  <g id="Group_49" data-name="Group 49" transform="translate(-0.25 -0.667)">
    <path id="Path_5" data-name="Path 5" d="M26.662,16.949h-3.3v-3.3h3.3a1.65,1.65,0,0,1,0,3.3Zm0,6.6h-3.3v-3.3h3.3a1.65,1.65,0,0,1,0,3.3ZM16.765,12a3.309,3.309,0,0,0-3.3,3.3h-3.3v6.6h3.3a3.309,3.309,0,0,0,3.3,3.3h4.949V12Z" transform="translate(1.63 1.863)" fill="#5b5d5f"/>
    <path id="Path_6" data-name="Path 6" d="M1.9,2.316a1.654,1.654,0,0,0,1.65,1.65H9.322a2.474,2.474,0,1,1,0,4.949H6.848a6.6,6.6,0,1,0,0,13.2h3.3v-3.3h-3.3a3.3,3.3,0,0,1,0-6.6H9.322a5.773,5.773,0,1,0,0-11.547H3.549A1.654,1.654,0,0,0,1.9,2.316Z" fill="#5b5d5f"/>
  </g>
</svg>
