<svg xmlns="http://www.w3.org/2000/svg" width="45.109" height="43.723" viewBox="0 0 45.109 43.723">
  <g id="hydraulic-energy" transform="translate(0 0)">
    <path id="Exclusion_4" data-name="Exclusion 4" d="M-2703.5-1840.621h0l-5.257-.005a1.324,1.324,0,0,1-1.3-1.071l-.357-1.852a13.2,13.2,0,0,1-1.444-.6l-1.562,1.054a1.318,1.318,0,0,1-.739.226,1.315,1.315,0,0,1-.935-.387l-3.718-3.717a1.324,1.324,0,0,1-.16-1.674l1.054-1.562a13.178,13.178,0,0,1-.606-1.469l-1.851-.362a1.324,1.324,0,0,1-1.069-1.3l.006-5.258a1.322,1.322,0,0,1,1.071-1.3l1.852-.358a13.1,13.1,0,0,1,.6-1.444l-1.055-1.562a1.321,1.321,0,0,1,.161-1.673l3.717-3.718a1.316,1.316,0,0,1,.935-.387,1.317,1.317,0,0,1,.739.226l1.563,1.054a13.5,13.5,0,0,1,1.469-.606l.361-1.851a1.325,1.325,0,0,1,1.3-1.068l5.259.005a1.323,1.323,0,0,1,1.3,1.071l.357,1.852a13.176,13.176,0,0,1,1.445.6l1.562-1.055a1.315,1.315,0,0,1,.738-.226,1.313,1.313,0,0,1,.935.387l3.718,3.718a1.323,1.323,0,0,1,.161,1.673l-1.055,1.562a13.455,13.455,0,0,1,.607,1.469l1.851.362a1.326,1.326,0,0,1,1.068,1.3l-.005,5.257a1.324,1.324,0,0,1-1.071,1.3l-1.852.357a13.038,13.038,0,0,1-.6,1.444l1.055,1.562a1.326,1.326,0,0,1-.161,1.674l-3.718,3.717a1.311,1.311,0,0,1-.935.388,1.313,1.313,0,0,1-.739-.227l-1.562-1.054a13.138,13.138,0,0,1-1.47.606l-.361,1.852A1.324,1.324,0,0,1-2703.5-1840.621Zm-2.615-22.261a6.941,6.941,0,0,0-6.934,6.933,6.941,6.941,0,0,0,6.934,6.933,6.941,6.941,0,0,0,6.933-6.933A6.941,6.941,0,0,0-2706.117-1862.881Zm0,11.222a4.3,4.3,0,0,1-4.29-4.289,4.3,4.3,0,0,1,4.29-4.289,4.294,4.294,0,0,1,4.29,4.289A4.294,4.294,0,0,1-2706.117-1851.659Z" transform="translate(2728.672 1871.277)" fill="#5b5d5f"/>
    <path id="Path_202" data-name="Path 202" d="M1.322,361.338a5.222,5.222,0,0,1,2.915.791,7.757,7.757,0,0,0,4.163,1.1,7.756,7.756,0,0,0,4.162-1.1,5.222,5.222,0,0,1,2.915-.791,5.222,5.222,0,0,1,2.915.791,7.756,7.756,0,0,0,4.162,1.1,7.757,7.757,0,0,0,4.163-1.1,5.223,5.223,0,0,1,2.915-.791,5.223,5.223,0,0,1,2.915.791,8.406,8.406,0,0,0,8.325,0,5.223,5.223,0,0,1,2.915-.791,1.322,1.322,0,1,0,0-2.643,7.754,7.754,0,0,0-4.163,1.1,5.771,5.771,0,0,1-5.831,0,7.754,7.754,0,0,0-4.163-1.1,7.755,7.755,0,0,0-4.163,1.1,5.223,5.223,0,0,1-2.915.791,5.222,5.222,0,0,1-2.915-.791,7.754,7.754,0,0,0-4.163-1.1,7.756,7.756,0,0,0-4.162,1.1,5.222,5.222,0,0,1-2.915.791,5.222,5.222,0,0,1-2.915-.791,7.755,7.755,0,0,0-4.162-1.1,1.322,1.322,0,1,0,0,2.643Zm0,0" transform="translate(0 -327.093)" fill="#5b5d5f"/>
    <path id="Path_203" data-name="Path 203" d="M43.787,444.777a7.757,7.757,0,0,0-4.163,1.1,5.769,5.769,0,0,1-5.831,0,7.757,7.757,0,0,0-4.163-1.1,7.754,7.754,0,0,0-4.163,1.1,5.226,5.226,0,0,1-2.915.79,5.225,5.225,0,0,1-2.915-.79,7.753,7.753,0,0,0-4.163-1.1,7.753,7.753,0,0,0-4.162,1.1,5.225,5.225,0,0,1-2.915.79,5.225,5.225,0,0,1-2.915-.79,7.752,7.752,0,0,0-4.162-1.1,1.322,1.322,0,1,0,0,2.643,5.222,5.222,0,0,1,2.915.791,7.753,7.753,0,0,0,4.163,1.1,7.756,7.756,0,0,0,4.162-1.1,5.222,5.222,0,0,1,2.915-.791,5.222,5.222,0,0,1,2.915.791,7.753,7.753,0,0,0,4.162,1.1,7.753,7.753,0,0,0,4.163-1.1,5.223,5.223,0,0,1,2.915-.791,5.223,5.223,0,0,1,2.915.791,8.4,8.4,0,0,0,8.325,0,5.223,5.223,0,0,1,2.915-.791,1.322,1.322,0,1,0,0-2.643Zm0,0" transform="translate(0 -405.591)" fill="#5b5d5f"/>
  </g>
</svg>
