<svg xmlns="http://www.w3.org/2000/svg" width="37.505" height="37.503" viewBox="0 0 37.505 37.503">
  <g id="idea" transform="translate(0 -0.012)">
    <path id="Exclusion_8" data-name="Exclusion 8" d="M-2574.062-1701.722a5.429,5.429,0,0,1-3.576-1.353,5.621,5.621,0,0,1-1.838-3.277,3.29,3.29,0,0,1-2.277-3.135v-2.2a8.568,8.568,0,0,0-2.166-5.61,13.18,13.18,0,0,1-3.023-11.618,12.938,12.938,0,0,1,3.559-6.494,12.947,12.947,0,0,1,6.489-3.525,13.818,13.818,0,0,1,2.82-.294,13.142,13.142,0,0,1,9.3,3.826,13.071,13.071,0,0,1,3.894,9.357,13.16,13.16,0,0,1-3.263,8.676,8.672,8.672,0,0,0-2.23,5.682v2.2a3.29,3.29,0,0,1-2.278,3.135,5.622,5.622,0,0,1-1.838,3.277A5.428,5.428,0,0,1-2574.062-1701.722Zm-3.108-4.475h0a3.378,3.378,0,0,0,3.108,2.278,3.378,3.378,0,0,0,3.108-2.278Zm-2.386-4.388v1.1a1.1,1.1,0,0,0,1.1,1.1h8.79a1.1,1.1,0,0,0,1.1-1.1v-1.1Zm5.494-24.247a1.1,1.1,0,0,0-1.1,1.1,1.1,1.1,0,0,0,1.1,1.1,6.6,6.6,0,0,1,6.593,6.593,1.1,1.1,0,0,0,1.1,1.1,1.1,1.1,0,0,0,1.1-1.1A8.8,8.8,0,0,0-2574.063-1734.832Z" transform="translate(2592.815 1739.237)" fill="#5b5d5f"/>
    <g id="Group_195" data-name="Group 195" transform="translate(0 13.196)">
      <g id="Group_194" data-name="Group 194">
        <path id="Path_141" data-name="Path 141" d="M3.3,179.99H1.1a1.1,1.1,0,1,0,0,2.2H3.3a1.1,1.1,0,1,0,0-2.2Z" transform="translate(0 -179.99)" fill="#5b5d5f"/>
      </g>
    </g>
    <g id="Group_197" data-name="Group 197" transform="translate(0.322 5.826)">
      <g id="Group_196" data-name="Group 196">
        <path id="Path_142" data-name="Path 142" d="M7.823,81.259,6.269,79.705a1.1,1.1,0,1,0-1.554,1.554l1.554,1.554a1.1,1.1,0,0,0,1.554-1.554Z" transform="translate(-4.394 -79.383)" fill="#5b5d5f"/>
      </g>
    </g>
    <g id="Group_199" data-name="Group 199" transform="translate(0.322 19.011)">
      <g id="Group_198" data-name="Group 198">
        <path id="Path_143" data-name="Path 143" d="M7.823,259.705a1.1,1.1,0,0,0-1.554,0l-1.554,1.554a1.1,1.1,0,0,0,1.554,1.554l1.554-1.554A1.1,1.1,0,0,0,7.823,259.705Z" transform="translate(-4.393 -259.383)" fill="#5b5d5f"/>
      </g>
    </g>
    <g id="Group_201" data-name="Group 201" transform="translate(33.11 13.196)">
      <g id="Group_200" data-name="Group 200">
        <path id="Path_144" data-name="Path 144" d="M455.3,179.99h-2.2a1.1,1.1,0,1,0,0,2.2h2.2a1.1,1.1,0,1,0,0-2.2Z" transform="translate(-452 -179.99)" fill="#5b5d5f"/>
      </g>
    </g>
    <g id="Group_203" data-name="Group 203" transform="translate(33.432 5.826)">
      <g id="Group_202" data-name="Group 202">
        <path id="Path_145" data-name="Path 145" d="M459.823,79.705a1.1,1.1,0,0,0-1.554,0l-1.554,1.554a1.1,1.1,0,1,0,1.554,1.554l1.554-1.554A1.1,1.1,0,0,0,459.823,79.705Z" transform="translate(-456.393 -79.383)" fill="#5b5d5f"/>
      </g>
    </g>
    <g id="Group_205" data-name="Group 205" transform="translate(33.432 19.011)">
      <g id="Group_204" data-name="Group 204">
        <path id="Path_146" data-name="Path 146" d="M459.823,261.259l-1.554-1.554a1.1,1.1,0,1,0-1.554,1.554l1.554,1.554a1.1,1.1,0,0,0,1.554-1.554Z" transform="translate(-456.393 -259.383)" fill="#5b5d5f"/>
      </g>
    </g>
  </g>
</svg>
