<svg xmlns="http://www.w3.org/2000/svg" width="36" height="27.675" viewBox="0 0 36 27.675">
  <g id="laptop" transform="translate(0 -59.201)">
    <g id="Group_177" data-name="Group 177" transform="translate(0 59.201)">
      <g id="Group_176" data-name="Group 176" transform="translate(0 0)">
        <path id="Path_132" data-name="Path 132" d="M36,84.293c0-.005,0-.01,0-.016a.517.517,0,0,0-.009-.061l0-.006a.511.511,0,0,0-.015-.054l-.005-.014a.506.506,0,0,0-.02-.047l0-.008-2.82-5.563v-18.3A1.022,1.022,0,0,0,32.1,59.2H3.9a1.022,1.022,0,0,0-1.021,1.021v18.3L.057,84.087l0,.008c-.007.015-.014.031-.02.047l-.005.014a.536.536,0,0,0-.015.054v.006A.52.52,0,0,0,0,84.277c0,.005,0,.01,0,.016s0,.022,0,.033v1.338a1.214,1.214,0,0,0,1.212,1.212H34.788A1.214,1.214,0,0,0,36,85.663V84.326C36,84.315,36,84.3,36,84.293ZM3.932,60.256H32.068V78.123H3.932ZM34.945,85.663a.158.158,0,0,1-.158.158H1.212a.158.158,0,0,1-.158-.158v-.81H34.945Z" transform="translate(0 -59.201)" fill="#57595a"/>
      </g>
    </g>
    <path id="Path_232" data-name="Path 232" d="M5.332,61.807V76.62H30.606V61.807Z" fill="#57595a"/>
  </g>
</svg>
