<svg xmlns="http://www.w3.org/2000/svg" width="33.307" height="34.552" viewBox="0 0 33.307 34.552">
  <path id="oil-can" d="M35.781.238,35.25.082A2.058,2.058,0,0,0,34.67,0a2.317,2.317,0,0,0-2.029,1.2L27.5,11.184a5.722,5.722,0,0,0-1.1-.107H21.06v-.635a3.072,3.072,0,0,0-.039-.464h2.318a1.913,1.913,0,0,0,0-3.826H12.679a1.913,1.913,0,0,0,0,3.826H15a3.05,3.05,0,0,0-.039.464v.635h-3.8c-2.9,0-4.98,2.057-5.713,5.644A116.959,116.959,0,0,0,3.912,28.764a5.172,5.172,0,0,0,1.44,3.889,5.893,5.893,0,0,0,4.28,1.856H17.52c.035,0,.07.006.106.006l10.145.038h.007A2.386,2.386,0,0,0,30.02,32.78L37.157,2.607A2.015,2.015,0,0,0,35.781.238ZM18.347,29.777a5.047,5.047,0,0,1-5.689-4.6c-.2-2.954,4.7-6.112,4.754-9.018.036-2.09,5.739,5.331,5.941,8.284A5.047,5.047,0,0,1,18.347,29.777Z" transform="translate(-3.901)" fill="#5b5d5f"/>
</svg>
