<svg xmlns="http://www.w3.org/2000/svg" width="43.363" height="43.363" viewBox="0 0 43.363 43.363">
  <g id="process" transform="translate(-23.682 -23.682)">
    <path id="Exclusion_6" data-name="Exclusion 6" d="M-3099.273-1686.592a12.6,12.6,0,0,1-8.967-3.714,12.6,12.6,0,0,1-3.715-8.967,12.6,12.6,0,0,1,3.715-8.968,12.6,12.6,0,0,1,8.967-3.714,12.614,12.614,0,0,1,8.964,3.718,12.612,12.612,0,0,1,3.718,8.964,12.6,12.6,0,0,1-3.714,8.967A12.6,12.6,0,0,1-3099.273-1686.592Zm-4.829-18.473a.933.933,0,0,0-.666.276,7.733,7.733,0,0,0-1.9,7.862,7.738,7.738,0,0,0,6.12,5.29l-.588.464a.936.936,0,0,0-.352.629.934.934,0,0,0,.2.693.934.934,0,0,0,.738.357.937.937,0,0,0,.584-.2l2.567-2.029a.934.934,0,0,0,.357-.738.938.938,0,0,0-.357-.739l-2.566-2.027a.933.933,0,0,0-.583-.2.937.937,0,0,0-.739.358.942.942,0,0,0,.155,1.322l.1.077a5.925,5.925,0,0,1-3.952-4.218,5.9,5.9,0,0,1,.049-2.987,5.907,5.907,0,0,1,1.507-2.579.933.933,0,0,0,.276-.664.935.935,0,0,0-.276-.666A.933.933,0,0,0-3104.1-1705.065Zm6.6.176a5.924,5.924,0,0,1,3.946,4.216,5.922,5.922,0,0,1-1.556,5.565.944.944,0,0,0,0,1.332.934.934,0,0,0,.665.275.94.94,0,0,0,.667-.276,7.733,7.733,0,0,0,1.905-7.863,7.737,7.737,0,0,0-6.121-5.29l.587-.464a.943.943,0,0,0,.155-1.322.939.939,0,0,0-.74-.358.932.932,0,0,0-.583.2l-2.567,2.029a.937.937,0,0,0-.357.739.934.934,0,0,0,.357.738l2.566,2.029a.933.933,0,0,0,.583.2.936.936,0,0,0,.739-.358.934.934,0,0,0,.2-.693.935.935,0,0,0-.352-.629l-.092-.074Z" transform="translate(3144.636 1744.636)" fill="#5b5d5f"/>
    <path id="Path_165" data-name="Path 165" d="M66.1,41.586h-3.73a17.182,17.182,0,0,0-2.312-5.579L62.7,33.371a.941.941,0,0,0,0-1.331l-4.012-4.011a.941.941,0,0,0-1.33,0L54.72,30.665a17.174,17.174,0,0,0-5.579-2.312V24.623a.941.941,0,0,0-.941-.941H42.527a.941.941,0,0,0-.941.941v3.73a17.174,17.174,0,0,0-5.579,2.312l-2.636-2.639a.941.941,0,0,0-1.33,0l-4.012,4.011a.941.941,0,0,0,0,1.331l2.636,2.638a17.182,17.182,0,0,0-2.312,5.579H24.623a.941.941,0,0,0-.941.941V48.2a.941.941,0,0,0,.941.941h3.73a17.182,17.182,0,0,0,2.312,5.579l-2.638,2.639a.941.941,0,0,0,0,1.331L32.039,62.7a.941.941,0,0,0,1.33,0l2.637-2.638a17.174,17.174,0,0,0,5.579,2.312V66.1a.941.941,0,0,0,.941.941H48.2a.941.941,0,0,0,.941-.941v-3.73a17.174,17.174,0,0,0,5.579-2.312L57.358,62.7a.941.941,0,0,0,1.33,0L62.7,58.688a.941.941,0,0,0,0-1.331L60.062,54.72a17.182,17.182,0,0,0,2.312-5.579H66.1a.941.941,0,0,0,.941-.941V42.527a.941.941,0,0,0-.942-.941Zm-.941,5.672H61.6a.941.941,0,0,0-.927.781A15.341,15.341,0,0,1,58.079,54.3a.941.941,0,0,0,.1,1.207l2.52,2.52L58.023,60.7l-2.52-2.52a.942.942,0,0,0-1.207-.1,15.35,15.35,0,0,1-6.256,2.593.941.941,0,0,0-.781.927v3.563h-3.79V61.6a.941.941,0,0,0-.781-.927,15.35,15.35,0,0,1-6.256-2.593.942.942,0,0,0-1.207.1L32.7,60.7l-2.681-2.681,2.52-2.52a.941.941,0,0,0,.1-1.207,15.342,15.342,0,0,1-2.593-6.257.941.941,0,0,0-.927-.781H25.564v-3.79h3.563a.941.941,0,0,0,.927-.781,15.342,15.342,0,0,1,2.593-6.257.941.941,0,0,0-.1-1.207l-2.52-2.52L32.7,30.023l2.52,2.52a.941.941,0,0,0,1.207.1,15.35,15.35,0,0,1,6.256-2.593.941.941,0,0,0,.781-.927V25.564h3.79v3.563a.941.941,0,0,0,.781.927A15.35,15.35,0,0,1,54.3,32.647a.941.941,0,0,0,1.207-.1l2.52-2.52L60.7,32.7l-2.52,2.52a.941.941,0,0,0-.1,1.207,15.341,15.341,0,0,1,2.593,6.257.941.941,0,0,0,.927.781h3.563Z" transform="translate(0 0)" fill="#5b5d5f"/>
  </g>
</svg>
