<svg xmlns="http://www.w3.org/2000/svg" width="42" height="42" viewBox="0 0 42 42">
  <g id="sandpaper" transform="translate(0)">
    <path id="Exclusion_5" data-name="Exclusion 5" d="M-2543-1831h-32.157v-5.086h-4.921v-4.922H-2585V-1873h31.992v4.922h4.921v4.921H-2543V-1831Zm-29.7-5.086v2.624h27.234V-1860.7h-2.625v24.61Zm-4.922-4.922v2.461h27.07v-27.07h-2.461v24.609Zm17.227-7.383v2.461h2.461v-2.461Zm-4.922,0v2.461h2.46v-2.461Zm-4.922,0v2.461h2.461v-2.461Zm-4.921,0v2.461h2.461v-2.461Zm-4.922,0v2.461h2.461v-2.461Zm19.688-4.922v2.462h2.461v-2.462Zm-4.922,0v2.462h2.46v-2.462Zm-4.922,0v2.462h2.461v-2.462Zm-4.921,0v2.462h2.461v-2.462Zm-4.922,0v2.462h2.461v-2.462Zm19.688-4.922v2.461h2.461v-2.461Zm-4.922,0v2.461h2.46v-2.461Zm-4.922,0v2.461h2.461v-2.461Zm-4.921,0v2.461h2.461v-2.461Zm-4.922,0v2.461h2.461v-2.461Zm19.688-4.921v2.461h2.461v-2.461Zm-4.922,0v2.461h2.46v-2.461Zm-4.922,0v2.461h2.461v-2.461Zm-4.921,0v2.461h2.461v-2.461Zm-4.922,0v2.461h2.461v-2.461Zm19.688-4.922v2.461h2.461v-2.461Zm-4.922,0v2.461h2.46v-2.461Zm-4.922,0v2.461h2.461v-2.461Zm-4.921,0v2.461h2.461v-2.461Zm-4.922,0v2.461h2.461v-2.461Z" transform="translate(2585 1873)" fill="#5b5d5f"/>
  </g>
</svg>
