<svg xmlns="http://www.w3.org/2000/svg" width="38.478" height="38.478" viewBox="0 0 38.478 38.478">
  <path id="screw" d="M38.473,15.975A11.69,11.69,0,0,1,34.967,23.9a.969.969,0,0,1-1.371,0L14.579,4.881a.969.969,0,0,1,0-1.37A11.629,11.629,0,0,1,22.817,0a10.787,10.787,0,0,1,7.665,3.21l.063.063a.969.969,0,0,1,.046,1.322L27.125,8.573l2.78,2.78,3.978-3.465a.969.969,0,0,1,1.322.046L35.268,8A10.757,10.757,0,0,1,38.473,15.975ZM5.181,22.939,1.793,26.581l13.945,6.531,3.739-3.478Zm4.775-5.133L6.568,21.448l14.439,6.763,3.739-3.478Zm17.557,2.982-9.822-9.822a.945.945,0,0,0-.7-.284.969.969,0,0,0-.692.309l-4.953,5.324,14.934,6.994,1.211-1.127a.969.969,0,0,0,.025-1.395ZM.406,28.072l-.146.157a.969.969,0,0,0,.024,1.345l8.62,8.62a.969.969,0,0,0,1.345.024l3.958-3.682Z" transform="translate(0)" fill="#5b5d5f"/>
</svg>
