<svg xmlns="http://www.w3.org/2000/svg" width="31.857" height="39.503" viewBox="0 0 31.857 39.503">
  <g id="screwdriver" transform="translate(-7 -1)">
    <path id="Path_209" data-name="Path 209" d="M32.646,3.666V2.911A1.914,1.914,0,0,0,30.734,1H28.186a1.914,1.914,0,0,0-1.911,1.911v.754A1.909,1.909,0,0,0,25,5.46V8.009A1.909,1.909,0,0,0,26.274,9.8v2.784A1.909,1.909,0,0,0,25,14.381v5.1a1.909,1.909,0,0,0,1.274,1.794v2.665h1.274v9.293l-1.342,1.342,1.482,5.93h3.544l1.482-5.93-1.342-1.342V23.937h1.274V21.272a1.909,1.909,0,0,0,1.274-1.794v-5.1a1.909,1.909,0,0,0-1.274-1.794V9.8A1.909,1.909,0,0,0,33.92,8.008V5.46a1.909,1.909,0,0,0-1.274-1.794Zm-4.46-1.392h2.549a.637.637,0,0,1,.637.637v.637H27.549V2.911A.637.637,0,0,1,28.186,2.274ZM31.3,34.964l-1.067,4.264H28.683l-1.067-4.264,1.206-1.206V23.937H30.1v9.821Zm-3.755-12.3V21.389h3.823v1.274Z" transform="translate(-6.531)" fill="#5b5d5f"/>
    <path id="Path_210" data-name="Path 210" d="M14.646,3.666V2.911A1.914,1.914,0,0,0,12.734,1H10.186A1.914,1.914,0,0,0,8.274,2.911v.754A1.909,1.909,0,0,0,7,5.46V8.009A1.909,1.909,0,0,0,8.274,9.8v2.784A1.907,1.907,0,0,0,7,14.38v5.1a1.909,1.909,0,0,0,1.274,1.794v2.666H9.549V40.5h1.538l2.285-2.285V23.937h1.274V21.272a1.909,1.909,0,0,0,1.274-1.794v-5.1a1.909,1.909,0,0,0-1.274-1.794V9.8A1.909,1.909,0,0,0,15.92,8.008V5.46a1.909,1.909,0,0,0-1.274-1.794Zm-4.46-1.392h2.549a.637.637,0,0,1,.637.637v.637H9.549V2.911A.637.637,0,0,1,10.186,2.274ZM12.1,37.691l-1.274,1.274V23.937H12.1ZM9.549,22.663V21.389h3.823v1.274Z" fill="#5b5d5f"/>
    <path id="Path_211" data-name="Path 211" d="M50.646,3.666V2.911A1.914,1.914,0,0,0,48.734,1H46.186a1.914,1.914,0,0,0-1.911,1.911v.754A1.909,1.909,0,0,0,43,5.46V19.477a1.909,1.909,0,0,0,1.274,1.794v.754a1.909,1.909,0,0,0,1.274,1.794V38.592a1.911,1.911,0,0,0,3.823,0V23.82a1.909,1.909,0,0,0,1.274-1.794v-.754a1.909,1.909,0,0,0,1.274-1.794V5.46a1.909,1.909,0,0,0-1.274-1.794Zm-4.46-1.392h2.549a.637.637,0,0,1,.637.637v.637H45.549V2.911A.637.637,0,0,1,46.186,2.274ZM47.46,39.229a.637.637,0,0,1-.637-.637V23.937H48.1V38.592A.637.637,0,0,1,47.46,39.229Zm1.274-16.566H46.186a.637.637,0,0,1-.637-.637v-.637h3.823v.637A.637.637,0,0,1,48.734,22.663Z" transform="translate(-13.063)" fill="#5b5d5f"/>
  </g>
</svg>
