<svg id="sewing" xmlns="http://www.w3.org/2000/svg" width="36" height="36" viewBox="0 0 36 36">
  <circle id="Ellipse_27" data-name="Ellipse 27" cx="1" cy="1" r="1" transform="translate(6 19)" fill="#5b5d5f"/>
  <circle id="Ellipse_28" data-name="Ellipse 28" cx="1" cy="1" r="1" transform="translate(6 11)" fill="#5b5d5f"/>
  <path id="Path_220" data-name="Path 220" d="M483.055,330H482v4.219h2.109v-3.164A1.055,1.055,0,0,0,483.055,330Z" transform="translate(-448.109 -306.797)" fill="#5b5d5f"/>
  <path id="Path_221" data-name="Path 221" d="M33.891,3.164A3.168,3.168,0,0,0,30.727,0H3.164A3.168,3.168,0,0,0,0,3.164V27.422H21.234V23.2H14.766V10.547h6.469v3.164a1.055,1.055,0,0,0,1.055,1.055H32.836a1.055,1.055,0,0,0,1.055-1.055ZM7.383,23.2a3.164,3.164,0,1,1,3.164-3.164A3.168,3.168,0,0,1,7.383,23.2Zm0-8.437A3.164,3.164,0,1,1,10.547,11.6,3.168,3.168,0,0,1,7.383,14.766Z" fill="#5b5d5f"/>
  <path id="Path_222" data-name="Path 222" d="M0,423.164a1.055,1.055,0,0,0,1.055,1.055h20.18V420H0Z" transform="translate(0 -390.469)" fill="#5b5d5f"/>
  <path id="Path_223" data-name="Path 223" d="M482,424.219h1.055a1.055,1.055,0,0,0,1.055-1.055V420H482Z" transform="translate(-448.109 -390.469)" fill="#5b5d5f"/>
  <path id="Path_224" data-name="Path 224" d="M337.461,244.219a1.055,1.055,0,0,0,0-2.109V240h-2.109v2.109a1.055,1.055,0,0,0,0,2.109v2.109H332V258.07a1.055,1.055,0,0,0,1.055,1.055h6.328a1.055,1.055,0,0,0,1.055-1.055V246.328h-2.977Z" transform="translate(-308.656 -223.125)" fill="#5b5d5f"/>
</svg>
