<svg xmlns="http://www.w3.org/2000/svg" width="40" height="40" viewBox="0 0 40 40">
  <g id="software" transform="translate(0 0)">
    <path id="Exclusion_2" data-name="Exclusion 2" d="M-2419.535-1971h-18.918a1.173,1.173,0,0,1-1.172-1.172,5.878,5.878,0,0,1,4.687-5.741v-2.461h-10.547a3.519,3.519,0,0,1-3.515-3.516v-23.594a3.519,3.519,0,0,1,3.515-3.515h32.969a3.52,3.52,0,0,1,3.516,3.515v23.594a3.5,3.5,0,0,1-.105.855,10.568,10.568,0,0,1,.105,1.489A10.561,10.561,0,0,1-2419.535-1971Zm-.012-18.75a8.213,8.213,0,0,0-8.2,8.2,8.212,8.212,0,0,0,8.2,8.2,8.212,8.212,0,0,0,8.2-8.2A8.212,8.212,0,0,0-2419.547-1989.75Zm-14.219,14.063a3.523,3.523,0,0,0-3.315,2.344h10.912a10.6,10.6,0,0,1-2.144-2.344Zm1.172-4.687v2.344h3.1a10.48,10.48,0,0,1-.537-2.344Zm-14.062-4.7v1.18a1.173,1.173,0,0,0,1.172,1.172h15.457a10.517,10.517,0,0,1,.537-2.352Zm9.394-21.266a1.169,1.169,0,0,0-.6.168l-5.865,3.533a1.175,1.175,0,0,0-.581,1.012v7.082a1.165,1.165,0,0,0,.556,1l5.859,3.619a1.185,1.185,0,0,0,.616.175,1.186,1.186,0,0,0,.615-.175l5.859-3.619a1.165,1.165,0,0,0,.556-1v-7.082a1.176,1.176,0,0,0-.571-1.005l-.005,0h0l-.015-.009-.216-.131-.557-.338-5.04-3.056A1.175,1.175,0,0,0-2437.263-2006.336Zm15.372,7.132a1.173,1.173,0,0,0-1.172,1.172,1.173,1.173,0,0,0,1.172,1.172h4.687a1.173,1.173,0,0,0,1.172-1.172,1.173,1.173,0,0,0-1.172-1.172Zm0-4.687a1.173,1.173,0,0,0-1.172,1.172,1.173,1.173,0,0,0,1.172,1.172h4.687a1.173,1.173,0,0,0,1.172-1.172,1.173,1.173,0,0,0-1.172-1.172Zm-14.219,10.867v-4.4l3.516-2.124v4.351l-3.515,2.171Zm-2.344,0h0l-3.514-2.171v-4.351l3.515,2.124v4.4Zm1.172-6.429h0l-3.59-2.17,3.608-2.172,3.578,2.17-3.6,2.172Z" transform="translate(2449 2011)" fill="#5b5d5f"/>
    <g id="Group_219" data-name="Group 219" transform="translate(25.938 25.938)">
      <g id="Group_218" data-name="Group 218">
        <path id="Path_216" data-name="Path 216" d="M335.516,332A3.52,3.52,0,0,0,332,335.516s0,0,0,.006v.02c0,.007,0,.013,0,.02A3.515,3.515,0,1,0,335.516,332Zm0,4.688a1.173,1.173,0,0,1-1.172-1.169v0h0a1.172,1.172,0,1,1,1.172,1.173Z" transform="translate(-332 -332)" fill="#5b5d5f"/>
      </g>
    </g>
  </g>
</svg>
