<svg xmlns="http://www.w3.org/2000/svg" width="40.521" height="49.117" viewBox="0 0 40.521 49.117">
  <path id="tap" d="M60.2,27.9V30.68a1.638,1.638,0,0,1-1.639,1.639h-8.09a1.638,1.638,0,0,1-1.639-1.639V27.9a1.639,1.639,0,0,1,1.313-1.606V23.155a1.016,1.016,0,0,0-1.014-1.014h-.333a8.616,8.616,0,0,1-15.041,0H21.313A1.638,1.638,0,0,1,19.674,20.5V15.092a1.638,1.638,0,0,1,1.639-1.639h12.61A8.637,8.637,0,0,1,38.39,9.829V7.794a1.636,1.636,0,0,1,.033-.328h-4.4a1.638,1.638,0,0,1-1.639-1.639V3.481a1.638,1.638,0,0,1,1.639-1.639H38.39v-.2A1.638,1.638,0,0,1,40.029,0h2.491a1.638,1.638,0,0,1,1.639,1.639v.2h4.365a1.638,1.638,0,0,1,1.639,1.639V5.828a1.638,1.638,0,0,1-1.639,1.639h-4.4a1.652,1.652,0,0,1,.033.328V9.829a8.635,8.635,0,0,1,4.468,3.625H51.78a7,7,0,0,1,7,7v5.823A1.637,1.637,0,0,1,60.2,27.9Zm-1.7,15.734a1.625,1.625,0,0,0-.085-.285l-2.436-7.76a1.638,1.638,0,0,0-3.126,0L50.372,43.46q-.019.059-.032.119a4.225,4.225,0,0,0-.2,1.274,4.265,4.265,0,1,0,8.348-1.223Z" transform="translate(-19.674)" fill="#5b5d5f"/>
</svg>
