<svg xmlns="http://www.w3.org/2000/svg" width="40.788" height="20.394" viewBox="0 0 40.788 20.394">
  <path id="Vector-1" d="M31.935,4.625a3.7,3.7,0,0,1,3.708,3.708v5.562A3.7,3.7,0,0,1,31.935,17.6H27.8l-2.3-2.28a7.43,7.43,0,0,0-10.494,0l-2.28,2.28H9.687a3.7,3.7,0,0,1-3.708-3.708V8.333A3.7,3.7,0,0,1,9.687,4.625Zm0-3.708H9.687A7.416,7.416,0,0,0,2.271,8.333H.417v5.562H2.271a7.416,7.416,0,0,0,7.416,7.416h4.635c.074-.111.167-.222,3.319-3.374a3.738,3.738,0,0,1,5.247,0l3.319,3.374h5.729a7.416,7.416,0,0,0,7.416-7.416H41.2V8.333H39.351A7.416,7.416,0,0,0,31.935.917Z" transform="translate(-0.417 -0.917)" fill="#5b5d5f"/>
</svg>
