<svg xmlns="http://www.w3.org/2000/svg" width="27.139" height="32.144" viewBox="0 0 27.139 32.144">
  <path id="Vector-3" d="M28.006,18.219c0,8.166-5.4,14.8-13.569,14.8S.867,26.385.867,18.219A13.15,13.15,0,0,1,13.2,27.126V15.752H7.035a3.7,3.7,0,0,1-3.7-3.7v-7.4a1.234,1.234,0,0,1,2.22-.74L9.329,8.844l4.071-7.4a1.234,1.234,0,0,1,2.072,0l4.071,7.4,3.775-4.934a1.234,1.234,0,0,1,2.22.74v7.4a3.7,3.7,0,0,1-3.7,3.7H15.67V27.126a13.15,13.15,0,0,1,12.336-8.907Z" transform="translate(-0.867 -0.878)" fill="#5b5d5f"/>
</svg>
