<svg xmlns="http://www.w3.org/2000/svg" width="30" height="36.667" viewBox="0 0 30 36.667">
  <path id="Vector-2" d="M21.667,17H20V3.667A3.343,3.343,0,0,0,16.667.333H13.333A3.343,3.343,0,0,0,10,3.667V17H8.333A8.336,8.336,0,0,0,0,25.333V37H30V25.333A8.336,8.336,0,0,0,21.667,17Zm5,16.667H23.333v-5a1.667,1.667,0,0,0-3.333,0v5H16.667v-5a1.667,1.667,0,0,0-3.333,0v5H10v-5a1.667,1.667,0,0,0-3.333,0v5H3.333V25.333a5.015,5.015,0,0,1,5-5H21.667a5.015,5.015,0,0,1,5,5Z" transform="translate(0 -0.333)" fill="#5b5d5f"/>
</svg>
