<svg xmlns="http://www.w3.org/2000/svg" width="38.236" height="44.843" viewBox="0 0 38.236 44.843">
  <g id="weld" transform="translate(0.001)">
    <path id="Path_154" data-name="Path 154" d="M342.237,2.058V.651a.656.656,0,0,0-1.312,0V2.058A.656.656,0,0,0,342.237,2.058Zm0,0" transform="translate(-311.066 0)" fill="#5b5d5f"/>
    <path id="Path_155" data-name="Path 155" d="M340.926,136.173v1.407a.656.656,0,0,0,1.312,0v-1.407A.656.656,0,0,0,340.926,136.173Zm0,0" transform="translate(-311.067 -123.652)" fill="#5b5d5f"/>
    <path id="Path_156" data-name="Path 156" d="M407.685,75.738h-1.408a.656.656,0,0,0,0,1.312h1.408A.656.656,0,0,0,407.685,75.738Zm0,0" transform="translate(-370.101 -69.105)" fill="#5b5d5f"/>
    <path id="Path_157" data-name="Path 157" d="M381.518,24.392l1.229-1.229a.656.656,0,0,0-.927-.927l-1.229,1.229a.656.656,0,0,0,.927.927Zm0,0" transform="translate(-347.074 -20.105)" fill="#5b5d5f"/>
    <path id="Path_158" data-name="Path 158" d="M288.422,118.066l-1,1a.656.656,0,0,0,.927.928l1-1A.656.656,0,0,0,288.422,118.066Zm0,0" transform="translate(-262.07 -107.541)" fill="#5b5d5f"/>
    <path id="Path_159" data-name="Path 159" d="M288.883,24.354a.657.657,0,0,0,.464-1.119l-1-1a.656.656,0,0,0-.927.927c.909.836,1.008,1.188,1.459,1.188Zm0,0" transform="translate(-262.067 -20.108)" fill="#5b5d5f"/>
    <path id="Path_160" data-name="Path 160" d="M381.515,115.4a.656.656,0,0,0-.927.928c1.138,1.06,1.232,1.421,1.693,1.421a.657.657,0,0,0,.464-1.119Zm0,0" transform="translate(-347.071 -105.112)" fill="#5b5d5f"/>
    <path id="Path_161" data-name="Path 161" d="M22.661,42.345,14.918,41.2a1.115,1.115,0,0,0-1.246.835h-.019A10.282,10.282,0,0,0,3.382,52.3v6.03H1.372A1.374,1.374,0,0,0,0,59.707v2.182a1.374,1.374,0,0,0,1.287,1.37V75.213c0,.867,0,1.762,0,2.63v2.389a2.192,2.192,0,0,0,2.189,2.189H8.444a2.192,2.192,0,0,0,2.189-2.189V72.455l2.452-1.374a1.73,1.73,0,0,0,.884-1.508V66.757a1.731,1.731,0,0,0-1.729-1.729H10.633V63.259a1.374,1.374,0,0,0,1.287-1.37V59.707a1.374,1.374,0,0,0-1.372-1.372H8.537V52.3a5.121,5.121,0,0,1,5.115-5.115h.025a1.115,1.115,0,0,0,1.248.834l7.74-1.165a1.122,1.122,0,0,0,.949-1.1l0-2.308a1.121,1.121,0,0,0-.951-1.1ZM12.24,66.34a.418.418,0,0,1,.417.417v2.816a.417.417,0,0,1-.213.364l-1.811,1.014V66.34H12.24ZM7.226,52.3v6.03H4.694V52.3a8.969,8.969,0,0,1,8.947-8.959l0,2.533A6.434,6.434,0,0,0,7.226,52.3Z" transform="translate(0 -37.579)" fill="#5b5d5f"/>
    <path id="Path_162" data-name="Path 162" d="M309,53.658a11.233,11.233,0,0,0-4.935-1.783,2.532,2.532,0,1,0,0,5.052A11.233,11.233,0,0,0,309,55.144a.87.87,0,0,0,0-1.487Zm-4.935,1.958a1.226,1.226,0,1,1,0-2.429,8.8,8.8,0,0,1,3.6,1.215A8.8,8.8,0,0,1,304.06,55.615Zm0,0" transform="translate(-274.966 -47.332)" fill="#5b5d5f"/>
  </g>
</svg>
