<svg xmlns="http://www.w3.org/2000/svg" width="43.334" height="38.999" viewBox="0 0 43.334 38.999">
  <g id="Cart" transform="translate(-0.333)">
    <path id="Path_2" data-name="Path 2" d="M43.28,9.6A2.167,2.167,0,0,0,41.5,8.667H11.888l-2.5-6A4.32,4.32,0,0,0,5.388,0H.333V4.333H5.388L15.666,29a2.167,2.167,0,0,0,2,1.333H35a2.172,2.172,0,0,0,2.03-1.4l6.5-17.333a2.167,2.167,0,0,0-.249-2ZM33.5,26H19.111L13.695,13H38.373Z" transform="translate(0 0)" fill="#fff"/>
    <path id="Path_3" data-name="Path 3" d="M16.416,34a3.25,3.25,0,1,0-3.25-3.25A3.25,3.25,0,0,0,16.416,34Z" transform="translate(2.333 5)" fill="#fff"/>
    <path id="Path_4" data-name="Path 4" d="M29.249,34A3.25,3.25,0,1,0,26,30.749,3.25,3.25,0,0,0,29.249,34Z" transform="translate(4.667 5)" fill="#fff"/>
  </g>
</svg>
