<svg xmlns="http://www.w3.org/2000/svg" width="26" height="38" viewBox="0 0 26 38">
  <path id="Location" d="M26,13.3a13.567,13.567,0,0,0-.99-5.09A13.325,13.325,0,0,0,22.192,3.9a12.985,12.985,0,0,0-4.218-2.883,12.729,12.729,0,0,0-9.95,0A12.985,12.985,0,0,0,3.808,3.9,13.325,13.325,0,0,0,.99,8.21,13.53,13.53,0,0,0,2.052,20.454H2.037C6.42,27.474,13,38,13,38L23.963,20.454H23.95A13.486,13.486,0,0,0,26,13.3ZM13,19a5.508,5.508,0,0,1-3.94-1.67,5.793,5.793,0,0,1,0-8.061,5.483,5.483,0,0,1,7.879,0,5.794,5.794,0,0,1,0,8.061A5.508,5.508,0,0,1,13,19Z" fill="#fff"/>
</svg>
