<svg xmlns="http://www.w3.org/2000/svg" xmlns:xlink="http://www.w3.org/1999/xlink" width="50.989" height="50.988" viewBox="0 0 50.989 50.988">
  <defs>
    <filter id="Ellipse_3" x="0" y="0" width="50.989" height="50.988" filterUnits="userSpaceOnUse">
      <feOffset dy="3" input="SourceAlpha"/>
      <feGaussianBlur stdDeviation="3" result="blur"/>
      <feFlood flood-opacity="0.161"/>
      <feComposite operator="in" in2="blur"/>
      <feComposite in="SourceGraphic"/>
    </filter>
  </defs>
  <g id="search" transform="translate(15.396 14.396)">
    <g transform="matrix(1, 0, 0, 1, -15.4, -14.4)" filter="url(#Ellipse_3)">
      <circle id="Ellipse_3-2" data-name="Ellipse 3" cx="16.494" cy="16.494" r="16.494" transform="translate(9 6)" fill="#fff"/>
    </g>
    <path id="Path_19" data-name="Path 19" d="M4.431,144.951l-.7,2.6-2.544.054a10.014,10.014,0,0,1-.074-9.335h0l2.265.415.992,2.251a5.966,5.966,0,0,0,.056,4.017Z" transform="translate(0.003 -134.866)" fill="#fbbb00"/>
    <path id="Path_20" data-name="Path 20" d="M271.23,208.176a9.993,9.993,0,0,1-3.564,9.664h0l-2.852-.146-.4-2.52a5.958,5.958,0,0,0,2.564-3.042h-5.346v-3.955h9.6Z" transform="translate(-251.408 -202.044)" fill="#518ef8"/>
    <path id="Path_21" data-name="Path 21" d="M45.573,315.119h0a10,10,0,0,1-15.064-3.058l3.24-2.652a5.946,5.946,0,0,0,8.568,3.044Z" transform="translate(-29.315 -299.323)" fill="#28b446"/>
    <path id="Path_22" data-name="Path 22" d="M43.884,2.3,40.646,4.953a5.945,5.945,0,0,0-8.764,3.113L28.625,5.4h0a10,10,0,0,1,15.26-3.1Z" transform="translate(-27.503 -1.997)" fill="#f14336"/>
  </g>
</svg>
